<svg id="Layer_1" data-name="Layer 1" xmlns="http://www.w3.org/2000/svg" viewBox="0 0 460.5 490.17"><defs><style>.cls-1{fill:none;}.cls-1,.cls-2{stroke:#a8dadc;stroke-miterlimit:10;}.cls-2{fill:#a8dadc;}.cls-3{fill:#384949;}.cls-4{fill:#293939;}.cls-5{fill:#4a696f;}.cls-6{fill:#9bfcff;}.cls-7{fill:#1d3557;}.cls-8{fill:#e63946;}</style></defs><title>api_m</title><line class="cls-1" x1="54.96" y1="40.66" x2="54.96" y2="449.51"/><line class="cls-1" x1="54.96" y1="40.66" x2="246.19" y2="40.66"/><line class="cls-1" x1="54.96" y1="449.51" x2="246.19" y2="449.51"/><line class="cls-2" y1="247.29" x2="246.19" y2="245.09"/><path class="cls-3" d="M299.82,33.35h73.42v9.79H299.82Z" transform="translate(-25.5 -11)"/><path class="cls-4" d="M336.53,33.35h36.71v9.79H336.53Z" transform="translate(-25.5 -11)"/><path class="cls-3" d="M299.82,62.72h73.42V72.5H299.82Z" transform="translate(-25.5 -11)"/><path class="cls-4" d="M336.53,62.72h36.71V72.5H336.53Z" transform="translate(-25.5 -11)"/><path class="cls-5" d="M294.77,11V35.8h83.52V11Z" transform="translate(-25.5 -11)"/><path class="cls-3" d="M336.53,11h41.76V35.8H336.53Z" transform="translate(-25.5 -11)"/><path class="cls-6" d="M304.72,21.11h4.89V26h-4.89Z" transform="translate(-25.5 -11)"/><path class="cls-6" d="M314.51,21.11h4.89V26h-4.89Z" transform="translate(-25.5 -11)"/><path class="cls-6" d="M324.29,21.11h4.9V26h-4.9Z" transform="translate(-25.5 -11)"/><path class="cls-4" d="M343.87,21.11h24.47V26H343.87Z" transform="translate(-25.5 -11)"/><path class="cls-5" d="M294.77,40.69V65.16h83.52V40.69Z" transform="translate(-25.5 -11)"/><path class="cls-3" d="M336.53,40.69h41.76V65.16H336.53Z" transform="translate(-25.5 -11)"/><path class="cls-6" d="M304.72,50.48h4.89v4.89h-4.89Z" transform="translate(-25.5 -11)"/><path class="cls-6" d="M314.51,50.48h4.89v4.89h-4.89Z" transform="translate(-25.5 -11)"/><path class="cls-6" d="M324.29,50.48h4.9v4.89h-4.9Z" transform="translate(-25.5 -11)"/><path class="cls-4" d="M343.87,50.48h24.47v4.89H343.87Z" transform="translate(-25.5 -11)"/><path class="cls-5" d="M294.77,70.06V94.53h83.52V70.06Z" transform="translate(-25.5 -11)"/><path class="cls-3" d="M336.53,70.06h41.76V94.53H336.53Z" transform="translate(-25.5 -11)"/><path class="cls-6" d="M304.72,79.84h4.89v4.9h-4.89Z" transform="translate(-25.5 -11)"/><path class="cls-6" d="M314.51,79.84h4.89v4.9h-4.89Z" transform="translate(-25.5 -11)"/><path class="cls-6" d="M324.29,79.84h4.9v4.9h-4.9Z" transform="translate(-25.5 -11)"/><path class="cls-4" d="M343.87,79.84h24.47v4.9H343.87Z" transform="translate(-25.5 -11)"/><path class="cls-3" d="M299.82,234.48h73.42v9.78H299.82Z" transform="translate(-25.5 -11)"/><path class="cls-4" d="M336.53,234.48h36.71v9.78H336.53Z" transform="translate(-25.5 -11)"/><path class="cls-3" d="M299.82,263.84h73.42v9.79H299.82Z" transform="translate(-25.5 -11)"/><path class="cls-4" d="M336.53,263.84h36.71v9.79H336.53Z" transform="translate(-25.5 -11)"/><path class="cls-5" d="M294.77,212.13v24.79h83.52V212.13Z" transform="translate(-25.5 -11)"/><path class="cls-3" d="M336.53,212.13h41.76v24.79H336.53Z" transform="translate(-25.5 -11)"/><path class="cls-6" d="M304.72,222.24h4.89v4.89h-4.89Z" transform="translate(-25.5 -11)"/><path class="cls-6" d="M314.51,222.24h4.89v4.89h-4.89Z" transform="translate(-25.5 -11)"/><path class="cls-6" d="M324.29,222.24h4.9v4.89h-4.9Z" transform="translate(-25.5 -11)"/><path class="cls-4" d="M343.87,222.24h24.47v4.89H343.87Z" transform="translate(-25.5 -11)"/><path class="cls-5" d="M294.77,241.82v24.47h83.52V241.82Z" transform="translate(-25.5 -11)"/><path class="cls-3" d="M336.53,241.82h41.76v24.47H336.53Z" transform="translate(-25.5 -11)"/><path class="cls-6" d="M304.72,251.61h4.89v4.89h-4.89Z" transform="translate(-25.5 -11)"/><path class="cls-6" d="M314.51,251.61h4.89v4.89h-4.89Z" transform="translate(-25.5 -11)"/><path class="cls-6" d="M324.29,251.61h4.9v4.89h-4.9Z" transform="translate(-25.5 -11)"/><path class="cls-4" d="M343.87,251.61h24.47v4.89H343.87Z" transform="translate(-25.5 -11)"/><path class="cls-5" d="M294.77,271.18v24.47h83.52V271.18Z" transform="translate(-25.5 -11)"/><path class="cls-3" d="M336.53,271.18h41.76v24.47H336.53Z" transform="translate(-25.5 -11)"/><path class="cls-6" d="M304.72,281h4.89v4.89h-4.89Z" transform="translate(-25.5 -11)"/><path class="cls-6" d="M314.51,281h4.89v4.89h-4.89Z" transform="translate(-25.5 -11)"/><path class="cls-6" d="M324.29,281h4.9v4.89h-4.9Z" transform="translate(-25.5 -11)"/><path class="cls-4" d="M343.87,281h24.47v4.89H343.87Z" transform="translate(-25.5 -11)"/><path class="cls-3" d="M299.82,440h73.42v9.79H299.82Z" transform="translate(-25.5 -11)"/><path class="cls-4" d="M336.53,440h36.71v9.79H336.53Z" transform="translate(-25.5 -11)"/><path class="cls-3" d="M299.82,469.36h73.42v9.79H299.82Z" transform="translate(-25.5 -11)"/><path class="cls-4" d="M336.53,469.36h36.71v9.79H336.53Z" transform="translate(-25.5 -11)"/><path class="cls-5" d="M294.77,417.65v24.79h83.52V417.65Z" transform="translate(-25.5 -11)"/><path class="cls-3" d="M336.53,417.65h41.76v24.79H336.53Z" transform="translate(-25.5 -11)"/><path class="cls-6" d="M304.72,427.76h4.89v4.9h-4.89Z" transform="translate(-25.5 -11)"/><path class="cls-6" d="M314.51,427.76h4.89v4.9h-4.89Z" transform="translate(-25.5 -11)"/><path class="cls-6" d="M324.29,427.76h4.9v4.9h-4.9Z" transform="translate(-25.5 -11)"/><path class="cls-4" d="M343.87,427.76h24.47v4.9H343.87Z" transform="translate(-25.5 -11)"/><path class="cls-5" d="M294.77,447.34v24.47h83.52V447.34Z" transform="translate(-25.5 -11)"/><path class="cls-3" d="M336.53,447.34h41.76v24.47H336.53Z" transform="translate(-25.5 -11)"/><path class="cls-6" d="M304.72,457.13h4.89V462h-4.89Z" transform="translate(-25.5 -11)"/><path class="cls-6" d="M314.51,457.13h4.89V462h-4.89Z" transform="translate(-25.5 -11)"/><path class="cls-6" d="M324.29,457.13h4.9V462h-4.9Z" transform="translate(-25.5 -11)"/><path class="cls-4" d="M343.87,457.13h24.47V462H343.87Z" transform="translate(-25.5 -11)"/><path class="cls-5" d="M294.77,476.7v24.47h83.52V476.7Z" transform="translate(-25.5 -11)"/><path class="cls-3" d="M336.53,476.7h41.76v24.47H336.53Z" transform="translate(-25.5 -11)"/><path class="cls-6" d="M304.72,486.49h4.89v4.9h-4.89Z" transform="translate(-25.5 -11)"/><path class="cls-6" d="M314.51,486.49h4.89v4.9h-4.89Z" transform="translate(-25.5 -11)"/><path class="cls-6" d="M324.29,486.49h4.9v4.9h-4.9Z" transform="translate(-25.5 -11)"/><path class="cls-4" d="M343.87,486.49h24.47v4.9H343.87Z" transform="translate(-25.5 -11)"/><path class="cls-7" d="M477,12.82l-36.8,36.79-20-20-9,9,29,29L486,21.79Z" transform="translate(-25.5 -11)"/><path class="cls-7" d="M477,216.64l-36.8,36.79-20-20-9,9,29,29L486,225.6Z" transform="translate(-25.5 -11)"/><path class="cls-8" d="M486,432l-8.89-8.89-28.48,28.48-28.47-28.48-8.9,8.89,28.48,28.48L411.26,489l8.9,8.9,28.47-28.48,28.48,28.48L486,489l-28.47-28.47Z" transform="translate(-25.5 -11)"/></svg>